<svg width="45" height="45" viewBox="0 0 45 45" fill="none" xmlns="http://www.w3.org/2000/svg">
<path d="M23.0251 20.3875C21.6192 20.3727 20.2491 19.9423 19.0873 19.1505C17.9255 18.3586 17.024 17.2408 16.4962 15.9376C15.9684 14.6344 15.8379 13.2043 16.1213 11.8271C16.4046 10.45 17.089 9.18746 18.0884 8.1985C19.0878 7.20954 20.3574 6.53836 21.7374 6.26946C23.1175 6.00057 24.5462 6.14598 25.8438 6.68739C27.1413 7.22879 28.2497 8.142 29.0293 9.31202C29.809 10.482 30.225 11.8566 30.2251 13.2625C30.2119 15.1611 29.4467 16.9771 28.0971 18.3126C26.7476 19.6481 24.9237 20.3942 23.0251 20.3875ZM23.0251 8.63755C22.1137 8.65233 21.227 8.93609 20.4763 9.4532C19.7257 9.9703 19.1446 10.6977 18.806 11.544C18.4674 12.3903 18.3865 13.3178 18.5733 14.2099C18.7601 15.1021 19.2064 15.9192 19.8561 16.5585C20.5058 17.1978 21.33 17.6309 22.225 17.8034C23.1201 17.9759 24.0462 17.88 24.8869 17.5278C25.7276 17.1757 26.4456 16.583 26.9506 15.8241C27.4555 15.0652 27.725 14.1741 27.7251 13.2625C27.7119 12.027 27.2101 10.8469 26.3294 9.98028C25.4487 9.11362 24.2607 8.63087 23.0251 8.63755Z" fill="white"/>
<path d="M23.0251 20.3875C21.6192 20.3727 20.2491 19.9423 19.0873 19.1505C17.9255 18.3586 17.024 17.2408 16.4962 15.9376C15.9684 14.6344 15.8379 13.2043 16.1213 11.8271C16.4046 10.45 17.089 9.18746 18.0884 8.1985C19.0878 7.20954 20.3574 6.53836 21.7374 6.26946C23.1175 6.00057 24.5462 6.14598 25.8438 6.68739C27.1413 7.22879 28.2497 8.142 29.0293 9.31202C29.809 10.482 30.225 11.8566 30.2251 13.2625C30.2119 15.1611 29.4467 16.9771 28.0971 18.3126C26.7476 19.6481 24.9237 20.3942 23.0251 20.3875ZM23.0251 8.63755C22.1137 8.65233 21.227 8.93609 20.4763 9.4532C19.7257 9.9703 19.1446 10.6977 18.806 11.544C18.4674 12.3903 18.3865 13.3178 18.5733 14.2099C18.7601 15.1021 19.2064 15.9192 19.8561 16.5585C20.5058 17.1978 21.33 17.6309 22.225 17.8034C23.1201 17.9759 24.0462 17.88 24.8869 17.5278C25.7276 17.1757 26.4456 16.583 26.9506 15.8241C27.4555 15.0652 27.725 14.1741 27.7251 13.2625C27.7119 12.027 27.2101 10.8469 26.3294 9.98028C25.4487 9.11362 24.2607 8.63087 23.0251 8.63755Z" fill="white"/>
<path d="M27.3875 22.0625C21.8432 21.0978 16.1354 21.9759 11.1375 24.5625C10.7827 24.7595 10.4889 25.0503 10.2883 25.403C10.0877 25.7558 9.98795 26.1569 10 26.5625V31.0125C10 31.344 10.1317 31.662 10.3661 31.8964C10.6005 32.1308 10.9185 32.2625 11.25 32.2625C11.5815 32.2625 11.8995 32.1308 12.1339 31.8964C12.3683 31.662 12.5 31.344 12.5 31.0125V26.725C17.1346 24.3996 22.405 23.6617 27.5 24.625L27.3875 22.0625Z" fill="white"/>
<path d="M41.25 27.5H32.875V25.65C32.875 25.3185 32.7433 25.0006 32.5089 24.7661C32.2745 24.5317 31.9565 24.4 31.625 24.4C31.2935 24.4 30.9755 24.5317 30.7411 24.7661C30.5067 25.0006 30.375 25.3185 30.375 25.65V27.5H21.25C20.9185 27.5 20.6005 27.6317 20.3661 27.8661C20.1317 28.1006 20 28.4185 20 28.75V41.25C20 41.5815 20.1317 41.8995 20.3661 42.1339C20.6005 42.3683 20.9185 42.5 21.25 42.5H41.25C41.5815 42.5 41.8995 42.3683 42.1339 42.1339C42.3683 41.8995 42.5 41.5815 42.5 41.25V28.75C42.5 28.4185 42.3683 28.1006 42.1339 27.8661C41.8995 27.6317 41.5815 27.5 41.25 27.5ZM40 40H22.5V30H30.375V30.5125C30.375 30.844 30.5067 31.162 30.7411 31.3964C30.9755 31.6308 31.2935 31.7625 31.625 31.7625C31.9565 31.7625 32.2745 31.6308 32.5089 31.3964C32.7433 31.162 32.875 30.844 32.875 30.5125V30H40V40Z" fill="#E31E24"/>
<path d="M34.7125 34.275H27.2625V36.025H34.7125V34.275Z" fill="#E31E24"/>
<path d="M13.55 15.3C10.0893 15.3579 6.68862 16.2135 3.6125 17.8C3.27795 17.9768 2.99772 18.2411 2.80177 18.5647C2.60582 18.8884 2.50151 19.2592 2.5 19.6375V23.5125C2.5 23.8441 2.6317 24.162 2.86612 24.3964C3.10054 24.6309 3.41848 24.7625 3.75 24.7625C4.08152 24.7625 4.39946 24.6309 4.63388 24.3964C4.8683 24.162 5 23.8441 5 23.5125V19.8875C7.93912 18.4246 11.1932 17.7077 14.475 17.8C14.0456 17.0166 13.7339 16.1743 13.55 15.3Z" fill="white"/>
<path d="M41.3875 17.7875C38.6285 16.3403 35.5964 15.4886 32.4875 15.2875C32.3044 16.1602 31.9971 17.0021 31.575 17.7875C34.5038 17.8576 37.3809 18.5748 40 19.8875V23.5125C40 23.8441 40.1316 24.162 40.3661 24.3964C40.6005 24.6308 40.9184 24.7625 41.25 24.7625C41.5815 24.7625 41.8994 24.6308 42.1338 24.3964C42.3683 24.162 42.5 23.8441 42.5 23.5125V19.6375C42.5007 19.2571 42.3975 18.8836 42.2014 18.5576C42.0053 18.2315 41.7239 17.9652 41.3875 17.7875Z" fill="white"/>
<path d="M13.325 13.2625C13.325 12.975 13.325 12.7 13.325 12.425C12.3458 12.294 11.4548 11.7903 10.8376 11.0189C10.2204 10.2475 9.92444 9.26771 10.0114 8.28359C10.0984 7.29947 10.5616 6.3868 11.3045 5.73559C12.0475 5.08438 13.013 4.74479 14 4.78752C15.0266 4.78566 16.0134 5.18485 16.75 5.90002C17.3999 5.364 18.1136 4.91054 18.875 4.55002C18.0245 3.57209 16.8977 2.87482 15.643 2.55011C14.3883 2.2254 13.0647 2.28849 11.8466 2.73107C10.6284 3.17365 9.57302 3.97494 8.81941 5.02934C8.0658 6.08373 7.64937 7.34173 7.625 8.63752C7.65123 10.2235 8.26775 11.7427 9.35413 12.8984C10.4405 14.0541 11.9187 14.7633 13.5 14.8875C13.394 14.3521 13.3354 13.8083 13.325 13.2625Z" fill="white"/>
<path d="M30.9626 2.28753C30.1036 2.28771 29.2532 2.45916 28.4613 2.79183C27.6693 3.1245 26.9516 3.61173 26.3501 4.22503C27.1952 4.53124 27.9943 4.95182 28.7251 5.47503C29.3087 5.06994 29.9912 4.83082 30.7 4.78316C31.4088 4.73551 32.1172 4.8811 32.7497 5.20443C33.3823 5.52775 33.9152 6.01668 34.2917 6.61908C34.6682 7.22148 34.8742 7.91477 34.8876 8.62503C34.8797 9.35457 34.6654 10.067 34.2694 10.6797C33.8734 11.2925 33.312 11.7806 32.6501 12.0875C32.7004 12.473 32.7254 12.8613 32.7251 13.25C32.7218 13.7525 32.68 14.2539 32.6001 14.75C33.9618 14.3999 35.1696 13.6095 36.0355 12.5017C36.9014 11.394 37.3767 10.031 37.3876 8.62503C37.3711 6.93416 36.6861 5.31853 35.4823 4.13107C34.2784 2.94362 32.6535 2.28084 30.9626 2.28753Z" fill="white"/>
</svg>
