<svg width="45" height="45" viewBox="0 0 45 45" fill="none" xmlns="http://www.w3.org/2000/svg">
<path d="M14.0625 30.9375C15.5543 30.9375 16.9851 30.3449 18.04 29.29C19.0949 28.2351 19.6875 26.8043 19.6875 25.3125C19.6875 23.8207 19.0949 22.3899 18.04 21.335C16.9851 20.2801 15.5543 19.6875 14.0625 19.6875C12.5707 19.6875 11.1399 20.2801 10.085 21.335C9.03013 22.3899 8.4375 23.8207 8.4375 25.3125C8.4375 26.8043 9.03013 28.2351 10.085 29.29C11.1399 30.3449 12.5707 30.9375 14.0625 30.9375ZM14.0625 22.5C14.8084 22.5 15.5238 22.7963 16.0512 23.3238C16.5787 23.8512 16.875 24.5666 16.875 25.3125C16.875 26.0584 16.5787 26.7738 16.0512 27.3012C15.5238 27.8287 14.8084 28.125 14.0625 28.125C13.3166 28.125 12.6012 27.8287 12.0738 27.3012C11.5463 26.7738 11.25 26.0584 11.25 25.3125C11.25 24.5666 11.5463 23.8512 12.0738 23.3238C12.6012 22.7963 13.3166 22.5 14.0625 22.5ZM21.0938 33.75H7.03125C5.16645 33.75 3.37802 34.4908 2.05941 35.8094C0.74079 37.128 0 38.9164 0 40.7812C0 41.9001 0.444476 42.9732 1.23565 43.7644C2.02681 44.5555 3.09987 45 4.21875 45H23.9062C25.0251 45 26.0982 44.5555 26.8894 43.7644C27.6805 42.9732 28.125 41.9001 28.125 40.7812C28.125 38.9164 27.3842 37.128 26.0656 35.8094C24.747 34.4908 22.9586 33.75 21.0938 33.75ZM23.9062 42.1875H4.21875C3.84579 42.1875 3.4881 42.0393 3.22438 41.7756C2.96066 41.5119 2.8125 41.1542 2.8125 40.7812C2.8125 39.6624 3.25698 38.5893 4.04815 37.7981C4.83931 37.007 5.91237 36.5625 7.03125 36.5625H21.0938C22.2126 36.5625 23.2857 37.007 24.0769 37.7981C24.868 38.5893 25.3125 39.6624 25.3125 40.7812C25.3125 41.1542 25.1643 41.5119 24.9006 41.7756C24.6369 42.0393 24.2792 42.1875 23.9062 42.1875ZM45 7.03125V21.0938C45 22.9586 44.2592 24.747 42.9406 26.0656C41.622 27.3842 39.8336 28.125 37.9688 28.125H30.1134L24.9019 33.3394C24.771 33.4699 24.6158 33.5733 24.4449 33.6438C24.2741 33.7142 24.091 33.7503 23.9062 33.75C23.7219 33.7504 23.5392 33.7141 23.3691 33.6431C23.1119 33.5368 22.892 33.3566 22.7373 33.1253C22.5826 32.894 22.5 32.622 22.5 32.3438V26.7188C22.5 26.3458 22.6482 25.9881 22.9119 25.7244C23.1756 25.4607 23.5333 25.3125 23.9062 25.3125C24.2792 25.3125 24.6369 25.4607 24.9006 25.7244C25.1643 25.9881 25.3125 26.3458 25.3125 26.7188V28.9491L28.5356 25.7231C28.6665 25.5926 28.8217 25.4892 28.9926 25.4187C29.1634 25.3483 29.3465 25.3122 29.5312 25.3125H37.9688C39.0876 25.3125 40.1607 24.868 40.9519 24.0769C41.743 23.2857 42.1875 22.2126 42.1875 21.0938V7.03125C42.1875 5.91237 41.743 4.83931 40.9519 4.04814C40.1607 3.25697 39.0876 2.8125 37.9688 2.8125H18.2812C17.1624 2.8125 16.0893 3.25697 15.2981 4.04814C14.507 4.83931 14.0625 5.91237 14.0625 7.03125V15.4688C14.0625 15.8417 13.9143 16.1994 13.6506 16.4631C13.3869 16.7268 13.0292 16.875 12.6562 16.875C12.2833 16.875 11.9256 16.7268 11.6619 16.4631C11.3982 16.1994 11.25 15.8417 11.25 15.4688V7.03125C11.25 5.16645 11.9908 3.37802 13.3094 2.05941C14.628 0.74079 16.4164 0 18.2812 0L37.9688 0C39.8336 0 41.622 0.74079 42.9406 2.05941C44.2592 3.37802 45 5.16645 45 7.03125ZM22.9106 17.2856L28.9491 11.25H23.9062C23.5333 11.25 23.1756 11.1018 22.9119 10.8381C22.6482 10.5744 22.5 10.2167 22.5 9.84375C22.5 9.47079 22.6482 9.1131 22.9119 8.84938C23.1756 8.58566 23.5333 8.4375 23.9062 8.4375H32.3438C32.5281 8.43757 32.7106 8.47389 32.8809 8.54438C33.2251 8.68867 33.4988 8.96239 33.6431 9.30656C33.7136 9.47689 33.7499 9.65941 33.75 9.84375V18.2812C33.75 18.6542 33.6018 19.0119 33.3381 19.2756C33.0744 19.5393 32.7167 19.6875 32.3438 19.6875C31.9708 19.6875 31.6131 19.5393 31.3494 19.2756C31.0857 19.0119 30.9375 18.6542 30.9375 18.2812V13.2384L24.9019 19.2769C24.771 19.4074 24.6158 19.5108 24.4449 19.5813C24.2741 19.6517 24.091 19.6878 23.9062 19.6875C23.7215 19.6878 23.5384 19.6517 23.3676 19.5813C23.1967 19.5108 23.0415 19.4074 22.9106 19.2769C22.7797 19.1462 22.6758 18.9911 22.6049 18.8202C22.534 18.6494 22.4975 18.4662 22.4975 18.2812C22.4975 18.0963 22.534 17.9131 22.6049 17.7423C22.6758 17.5714 22.7797 17.4163 22.9106 17.2856Z" fill="black"/>
</svg>
