<svg width="573" height="327" viewBox="0 0 573 327" fill="none" xmlns="http://www.w3.org/2000/svg">
<g clip-path="url(#clip0_100_41)">
<path d="M94.1849 148.682V56.7842C94.1849 55.4718 94.7069 54.2132 95.6359 53.2852C96.5649 52.3572 97.8249 51.8358 99.1388 51.8358C100.453 51.8358 101.713 52.3572 102.642 53.2852C103.571 54.2132 104.093 55.4718 104.093 56.7842V148.682C104.093 149.995 103.571 151.253 102.642 152.181C101.713 153.109 100.453 153.631 99.1388 153.631C97.8249 153.631 96.5649 153.109 95.6359 152.181C94.7069 151.253 94.1849 149.995 94.1849 148.682Z" fill="#F0F0F0"/>
<path d="M82.3312 148.682V56.7842C82.3312 55.4718 82.8531 54.2132 83.7821 53.2852C84.7112 52.3572 85.9712 51.8358 87.285 51.8358C88.5989 51.8358 89.8589 52.3572 90.7879 53.2852C91.7169 54.2132 92.2389 55.4718 92.2389 56.7842V148.682C92.2389 149.995 91.7169 151.253 90.7879 152.181C89.8589 153.109 88.5989 153.631 87.285 153.631C85.9712 153.631 84.7112 153.109 83.7821 152.181C82.8531 151.253 82.3312 149.995 82.3312 148.682Z" fill="#F0F0F0"/>
<path d="M70.4773 148.682V56.7842C70.4773 55.4718 70.9992 54.2132 71.9282 53.2852C72.8573 52.3572 74.1173 51.8358 75.4311 51.8358C76.745 51.8358 78.005 52.3572 78.934 53.2852C79.863 54.2132 80.385 55.4718 80.385 56.7842V148.682C80.385 149.995 79.863 151.253 78.934 152.181C78.005 153.109 76.745 153.631 75.4311 153.631C74.1173 153.631 72.8573 153.109 71.9282 152.181C70.9992 151.253 70.4773 149.995 70.4773 148.682Z" fill="#F0F0F0"/>
<path d="M518.024 295.462C516.029 295.464 514.049 295.12 512.171 294.447L511.882 294.343L512.015 293.703C508.652 286.916 509.828 277.619 515.025 269.974C519.75 263.024 526.935 257.972 533.273 253.514C534.078 252.949 535.033 252.637 536.017 252.618C537 252.599 537.967 252.874 538.792 253.409C539.618 253.943 540.264 254.712 540.649 255.616C541.033 256.52 541.138 257.519 540.95 258.483L538.683 270.1C537.048 278.481 535.101 286.413 529.33 291.359C526.16 294.009 522.158 295.461 518.024 295.462Z" fill="#E6E6E6"/>
<path d="M532.869 315.536C530.674 315.524 528.516 314.963 526.593 313.906C524.669 312.848 523.041 311.327 521.855 309.481L521.69 309.226L522.082 308.881C523.096 303.354 527.866 298.43 534.271 296.312C540.092 294.387 546.518 294.702 552.183 294.979C552.932 295.015 553.653 295.273 554.255 295.719C554.857 296.165 555.313 296.78 555.565 297.485C555.817 298.19 555.853 298.954 555.67 299.68C555.487 300.406 555.092 301.062 554.535 301.563L548.16 307.311C543.528 311.487 538.908 315.258 533.335 315.527C533.179 315.534 533.024 315.537 532.869 315.536Z" fill="#E6E6E6"/>
<path d="M513.086 321.681C512.144 314.679 511.176 307.587 511.836 300.509C512.423 294.224 514.301 288.085 518.124 283.051C520.144 280.393 522.613 278.108 525.42 276.3C526.15 275.829 526.822 277.01 526.095 277.478C521.228 280.634 517.485 285.246 515.401 290.655C513.072 296.703 512.698 303.295 513.1 309.719C513.342 313.604 513.856 317.463 514.375 321.318C514.416 321.491 514.392 321.673 514.305 321.829C514.219 321.984 514.077 322.102 513.908 322.158C513.822 322.18 513.733 322.186 513.646 322.174C513.558 322.163 513.474 322.134 513.398 322.09C513.321 322.045 513.254 321.987 513.201 321.916C513.147 321.846 513.108 321.766 513.086 321.681Z" fill="#F2F2F2"/>
<path d="M510.425 325.706C514.956 317.519 520.212 308.42 529.603 305.512C532.21 304.707 534.95 304.418 537.669 304.662C538.525 304.737 538.311 306.085 537.457 306.01C532.89 305.627 528.334 306.858 524.584 309.487C520.954 312.01 518.128 315.518 515.736 319.237C514.271 321.515 512.959 323.89 511.646 326.262C511.227 327.02 510.001 326.473 510.425 325.706Z" fill="#F2F2F2"/>
<path d="M508.386 325.586L512.961 325.691L485.375 178.486L480.8 179.347L488.004 217.534H464.796L471.999 179.347L467.425 178.486L440.069 325.691L444.414 325.586L458.795 249.345H494.004L508.386 325.586ZM459.862 243.689L463.729 223.189H489.07L492.937 243.689H459.862Z" fill="#CACACA"/>
<path d="M308.615 151.027V102.685C308.615 101.249 310.837 100.082 313.569 100.082C316.301 100.082 318.523 101.249 318.523 102.685V151.027C318.523 152.462 316.301 153.63 313.569 153.63C310.837 153.63 308.615 152.462 308.615 151.027Z" fill="#F0F0F0"/>
<path d="M296.761 151.027V102.685C296.761 101.249 298.984 100.082 301.715 100.082C304.447 100.082 306.669 101.249 306.669 102.685V151.027C306.669 152.462 304.447 153.63 301.715 153.63C298.984 153.63 296.761 152.462 296.761 151.027Z" fill="#F0F0F0"/>
<path d="M284.908 151.027V102.685C284.908 101.249 287.13 100.082 289.862 100.082C292.593 100.082 294.815 101.249 294.815 102.685V151.027C294.815 152.462 292.593 153.63 289.862 153.63C287.13 153.63 284.908 152.462 284.908 151.027Z" fill="#F0F0F0"/>
<path d="M384.631 115.476C384.609 115.329 384.556 115.189 384.476 115.063C384.396 114.938 384.291 114.831 384.167 114.749L346.82 90.1215C347.383 89.8868 347.853 89.475 348.16 88.9486C348.533 88.2985 348.634 87.5275 348.44 86.8038C348.246 86.0801 347.773 85.4625 347.124 85.0859L344.06 83.3187C343.409 82.9459 342.637 82.8456 341.913 83.0395C341.188 83.2334 340.57 83.7059 340.193 84.3537C339.99 84.7097 339.867 85.1062 339.835 85.515L312.876 67.7374C311.971 65.5471 310.598 63.5804 308.854 61.9742C307.11 60.368 305.036 59.161 302.777 58.4372V50.5988H292.869V58.4372C289.582 59.4872 286.714 61.5533 284.679 64.3374C282.644 67.1214 281.547 70.4794 281.546 73.9267V76.0475H291.454C291.454 77.7348 292.125 79.3531 293.319 80.5462C294.514 81.7394 296.134 82.4096 297.823 82.4096C299.512 82.4096 301.132 81.7394 302.327 80.5462C303.521 79.3531 304.192 77.7348 304.192 76.0475H314.1V73.9267C314.099 72.9101 314.003 71.8958 313.813 70.897L382.013 115.87L353.683 150.276C353.463 150.275 353.244 150.273 353.023 150.273C350.763 150.273 348.573 150.326 346.486 150.418C346.612 150.069 346.667 149.698 346.647 149.327C346.606 148.579 346.27 147.877 345.713 147.376C345.156 146.874 344.423 146.613 343.673 146.65L340.14 146.834C339.391 146.875 338.688 147.211 338.186 147.768C337.684 148.324 337.423 149.057 337.46 149.805C337.486 150.247 337.618 150.677 337.844 151.058C331.595 151.721 327.546 152.635 327.546 153.101C327.546 153.863 338.419 153.137 352.027 153.102C352.089 153.279 352.197 153.436 352.341 153.557C352.484 153.678 352.657 153.759 352.842 153.792C353.026 153.824 353.216 153.807 353.392 153.741C353.568 153.676 353.724 153.565 353.843 153.42L354.105 153.102C367.673 153.14 378.5 153.861 378.5 153.101C378.5 152.383 368.874 150.599 356.401 150.313L384.402 116.308C384.496 116.193 384.565 116.06 384.605 115.916C384.645 115.773 384.653 115.623 384.631 115.476Z" fill="#CCCCCC"/>
<path d="M385.653 325.94H298.454C296.692 325.938 295.003 325.237 293.757 323.993C292.511 322.748 291.81 321.06 291.808 319.3V176.352C291.806 174.779 291.18 173.271 290.066 172.159C288.953 171.047 287.443 170.422 285.869 170.42H81.901C80.3265 170.422 78.8169 171.047 77.7035 172.159C76.5901 173.271 75.9638 174.779 75.962 176.352V319.3C75.96 321.06 75.2591 322.748 74.013 323.993C72.767 325.237 71.0775 325.938 69.3153 325.94H66.3318C64.5696 325.938 62.8801 325.237 61.6341 323.993C60.388 322.748 59.6871 321.06 59.6851 319.3V168.653C59.6898 164.436 61.369 160.393 64.3541 157.411C67.3392 154.429 71.3866 152.752 75.6082 152.747H376.377C380.598 152.752 384.646 154.429 387.631 157.411C390.616 160.393 392.295 164.436 392.3 168.653V319.3C392.298 321.06 391.597 322.748 390.351 323.993C389.105 325.238 387.415 325.938 385.653 325.94Z" fill="#E4E4E4"/>
<path d="M391.946 189.86H292.161V194.101H391.946V189.86Z" fill="white"/>
<path d="M391.946 247.119H292.161V251.361H391.946V247.119Z" fill="white"/>
<path d="M209.562 152.049L206.695 150.843L204.727 136.482H178.528L176.396 150.784L173.83 152.066C173.707 152.127 173.609 152.228 173.551 152.352C173.493 152.476 173.478 152.616 173.51 152.75C173.541 152.883 173.617 153.002 173.725 153.087C173.832 153.172 173.965 153.218 174.103 153.219H209.326C209.467 153.219 209.603 153.17 209.712 153.081C209.821 152.992 209.895 152.868 209.923 152.73C209.951 152.593 209.93 152.45 209.865 152.325C209.799 152.201 209.692 152.104 209.562 152.049Z" fill="#E6E6E6"/>
<path d="M256.12 138.393H127.423C126.748 138.391 126.101 138.122 125.624 137.645C125.147 137.167 124.879 136.52 124.879 135.846V117.718H258.664V135.846C258.664 136.52 258.396 137.167 257.919 137.645C257.442 138.122 256.795 138.391 256.12 138.393Z" fill="#CCCCCC"/>
<path d="M258.798 126.286H124.762V48.7206C124.763 47.9066 125.087 47.1262 125.663 46.5506C126.24 45.9751 127.021 45.6513 127.836 45.6504H255.724C256.539 45.6513 257.321 45.9751 257.897 46.5506C258.473 47.1262 258.797 47.9066 258.798 48.7206V126.286Z" fill="#3F3D56"/>
<path d="M250.793 120.656H132.767C132.139 120.655 131.537 120.406 131.093 119.962C130.648 119.518 130.399 118.917 130.398 118.289V53.647C130.399 53.0194 130.648 52.4178 131.093 51.974C131.537 51.5302 132.139 51.2806 132.767 51.2799H250.793C251.421 51.2806 252.023 51.5302 252.468 51.974C252.912 52.4178 253.162 53.0194 253.162 53.647V118.289C253.162 118.917 252.912 119.518 252.468 119.962C252.023 120.406 251.421 120.655 250.793 120.656Z" fill="white"/>
<path d="M383.101 58.7008C384.23 58.5383 385.381 58.625 386.473 58.9549C387.565 59.2848 388.571 59.8498 389.42 60.6101C390.27 61.3705 390.942 62.3076 391.39 63.3556C391.838 64.4035 392.05 65.5368 392.012 66.6756L417.889 76.625L406.165 84.992L383.389 74.2611C381.478 74.0703 379.704 73.186 378.402 71.7756C377.1 70.3652 376.362 68.5268 376.326 66.6088C376.291 64.6908 376.961 62.8264 378.209 61.3689C379.458 59.9114 381.198 58.962 383.101 58.7008Z" fill="#9E616A"/>
<path d="M481.355 53.8167L485.733 61.7671C484.675 66.8097 481.941 71.3467 477.975 74.6404C471.272 80.2869 436.227 101.317 436.227 101.317L391.984 79.1302L399.724 68.8566L434.459 80.4846C447.344 68.3306 462.893 59.3514 479.867 54.2627L481.355 53.8167Z" fill="#E4E4E4"/>
<path d="M473.215 185.376C492.285 185.376 507.744 180.344 507.744 174.137C507.744 167.93 492.285 162.899 473.215 162.899C454.145 162.899 438.686 167.93 438.686 174.137C438.686 180.344 454.145 185.376 473.215 185.376Z" fill="#CACACA"/>
<path d="M395.753 316.062L386.584 313.531L391.996 276.999L405.529 280.737L395.753 316.062Z" fill="#9E616A"/>
<path d="M395.634 325.586L366.07 317.423L366.174 317.049C367.017 314.001 369.039 311.412 371.793 309.852C374.547 308.292 377.809 307.889 380.861 308.732L380.862 308.732L398.919 313.718L395.634 325.586Z" fill="#2F2E41"/>
<path d="M369.169 316.181L360.467 312.343L371.147 276.989L383.99 282.653L369.169 316.181Z" fill="#9E616A"/>
<path d="M367.664 325.586L339.605 313.21L339.761 312.855C341.04 309.962 343.418 307.695 346.37 306.552C349.323 305.41 352.608 305.486 355.505 306.763L355.506 306.763L372.643 314.322L367.664 325.586Z" fill="#2F2E41"/>
<path d="M500.087 146.66C500.087 146.66 504.699 160.935 476.4 178.987L439.953 215.265L402.083 305.753L379.6 295.685L384.009 283.928L386.968 276.038L388.482 272.002L390.105 267.675L414.174 203.497L434.393 168.135L434.98 148.947L439.953 135.422L476.033 122.633L500.087 146.66Z" fill="#2F2E41"/>
<path d="M481.687 147.367C481.687 147.367 486.3 161.642 458 179.694L421.553 215.972L383.683 306.46L361.2 296.392L365.609 284.634L368.568 276.745L370.082 272.709L371.705 268.382L395.775 204.204L402.544 192.364C411.475 176.744 422.327 162.302 434.848 149.373L441.484 142.521L442.192 131.917L457.634 123.34L481.687 147.367Z" fill="#2F2E41"/>
<path d="M459.884 77.485L471.207 53.4501L490.967 50.7577C490.967 50.7577 506.397 70.3935 502.346 97.9854C500.827 108.332 499.589 118.633 499.515 127.676C499.495 130.081 501.602 131.156 501.638 133.331C501.673 135.467 497.644 138.948 498.807 140.4C500.47 142.401 501.461 144.874 501.638 147.469C500.236 150.803 457.792 132.741 439.953 135.422L459.884 77.485Z" fill="#E4E4E4"/>
<path d="M487.95 38.6576C492.994 30.1822 490.204 19.2273 481.719 14.1892C473.235 9.15105 462.268 11.9375 457.224 20.4129C452.18 28.8883 454.97 39.8431 463.454 44.8813C471.939 49.9194 482.906 47.1329 487.95 38.6576Z" fill="#9E616A"/>
<path d="M484.013 23.1251C483.979 23.5948 483.932 24.217 483.877 24.9208C483.822 26.8477 484.365 28.7443 485.433 30.3498C486.433 32.0389 485.24 42.2406 485.24 42.2406C514.516 21.856 491.384 1.37639 482.335 3.19688C482.524 0.604558 475.144 1.63152 475.144 1.63152C472.332 -2.74271 466.169 3.06371 466.169 3.06371L467.358 1.06533C462.574 2.28101 457.845 17.0523 457.845 17.0523C459.467 23.4248 484.202 20.5328 484.013 23.1251Z" fill="#2F2E41"/>
<path d="M370.443 86.9398C380.503 73.573 388.456 58.7469 394.026 42.9765C394.348 42.0331 394.325 41.006 393.961 40.078C393.596 39.15 392.914 38.3813 392.035 37.9087L357.61 19.483C357.053 19.1826 356.434 19.0132 355.802 18.9876C355.17 18.9619 354.54 19.0807 353.96 19.335C353.37 19.5912 352.846 19.9786 352.428 20.4676C352.01 20.9566 351.71 21.5343 351.549 22.1569C347.542 37.3537 340.011 51.395 329.563 63.1447C329.133 63.623 328.818 64.1929 328.642 64.8112C328.465 65.4295 328.433 66.0799 328.546 66.7127C328.655 67.3354 328.905 67.9252 329.277 68.4369C329.648 68.9486 330.132 69.3689 330.691 69.6657L365.117 88.0916C365.997 88.5606 367.016 88.7023 367.991 88.4913C368.967 88.2804 369.835 87.7307 370.443 86.9398Z" fill="#CCCCCC"/>
<path d="M368.094 85.1765C367.909 85.4074 367.648 85.5664 367.358 85.6263C367.068 85.6861 366.766 85.643 366.505 85.5043L332.079 67.0782C331.912 66.9911 331.767 66.8666 331.656 66.7143C331.545 66.562 331.471 66.3862 331.44 66.2005C331.404 66.0045 331.414 65.8028 331.469 65.6113C331.524 65.4198 331.623 65.2438 331.758 65.0969C342.513 53.001 350.267 38.546 354.392 22.9013C354.44 22.708 354.531 22.5284 354.66 22.3765C354.789 22.2245 354.951 22.1045 355.134 22.0256C355.307 21.9486 355.495 21.9126 355.683 21.9204C355.872 21.9281 356.057 21.9796 356.222 22.0705L390.647 40.4961C390.908 40.6369 391.111 40.8642 391.222 41.1388C391.333 41.4134 391.344 41.7181 391.254 42.0001C385.784 57.4883 377.974 72.0489 368.094 85.1765Z" fill="white"/>
<path d="M356.05 39.5767L379.794 53.4789C382.157 54.8621 384.296 51.1975 381.937 49.8165L358.193 35.9143C355.83 34.5311 353.691 38.1957 356.05 39.5767Z" fill="#FF5E5E"/>
<path d="M351.804 47.3527L375.548 61.2549C377.911 62.6381 380.05 58.9735 377.691 57.5925L353.947 43.6903C351.584 42.3071 349.445 45.9717 351.804 47.3527Z" fill="#FF5E5E"/>
<path d="M346.85 55.8355L370.594 69.7377C372.957 71.1209 375.096 67.4563 372.737 66.0753L348.993 52.1731C346.63 50.7899 344.491 54.4545 346.85 55.8355Z" fill="#FF5E5E"/>
<path d="M341.896 62.9046L365.64 76.8068C368.003 78.19 370.142 74.5254 367.784 73.1444L344.039 59.2422C341.676 57.859 339.537 61.5236 341.896 62.9046Z" fill="#FF5E5E"/>
<path d="M450.141 144.679L459.055 164.702C459.27 165.182 459.362 165.707 459.323 166.231C459.283 166.754 459.114 167.26 458.829 167.702C458.495 168.23 458.011 168.648 457.439 168.902C456.867 169.156 456.233 169.235 455.616 169.129C455.406 169.097 455.2 169.042 455.002 168.966C454.214 168.662 453.579 168.058 453.235 167.287L444.321 147.264C444.151 146.882 444.058 146.471 444.047 146.053C444.036 145.636 444.108 145.22 444.258 144.83C444.561 144.043 445.165 143.408 445.937 143.065C446.708 142.722 447.585 142.699 448.373 143.002C449.162 143.305 449.797 143.908 450.141 144.679Z" fill="#FF5E5E"/>
<path d="M458.336 163.087L460.122 167.129L461.035 172.858C461.095 173.235 461.029 173.622 460.847 173.958C460.665 174.293 460.376 174.56 460.027 174.715C459.678 174.87 459.287 174.905 458.915 174.816C458.543 174.726 458.212 174.516 457.972 174.219L454.276 169.626L452.516 165.673L458.336 163.087Z" fill="#3F3D56"/>
<path d="M442.34 139.108L443.617 147.124C443.659 147.387 443.761 147.636 443.914 147.853C444.068 148.07 444.27 148.249 444.503 148.376C444.737 148.502 444.997 148.574 445.263 148.584C445.529 148.595 445.794 148.544 446.037 148.436L447.303 147.873L449.747 153.364C449.824 153.535 449.965 153.668 450.14 153.735C450.315 153.803 450.51 153.797 450.681 153.721C450.852 153.645 450.986 153.504 451.054 153.33C451.121 153.155 451.116 152.96 451.041 152.789L448.596 147.299L449.863 146.736C450.283 146.55 450.611 146.204 450.777 145.776C450.942 145.348 450.931 144.871 450.746 144.451C450.684 144.312 450.604 144.182 450.508 144.063L445.404 137.747C445.164 137.449 444.833 137.24 444.461 137.15C444.089 137.061 443.698 137.096 443.349 137.251C442.999 137.407 442.711 137.673 442.529 138.008C442.346 138.344 442.28 138.731 442.34 139.108Z" fill="#3F3D56"/>
<path d="M446.038 153.577C446.239 152.455 446.683 151.391 447.341 150.46C447.998 149.529 448.851 148.753 449.841 148.186C450.831 147.62 451.933 147.277 453.07 147.183C454.206 147.088 455.35 147.243 456.42 147.638L474.018 126.234L478.279 139.983L460.915 158.201C460.132 159.952 458.733 161.356 456.984 162.147C455.234 162.937 453.254 163.059 451.421 162.489C449.587 161.919 448.026 160.697 447.034 159.055C446.042 157.412 445.688 155.463 446.038 153.577Z" fill="#9E616A"/>
<path d="M468.192 152.186L460.441 141.003L482.45 111.691L471.112 87.423L471.938 58.5563L481.307 56.8275L481.423 56.8858C485.978 59.5048 489.499 63.6013 491.401 68.4952C493.738 74.3316 498.956 96.2416 501.858 108.782C502.428 111.212 502.365 113.748 501.677 116.147C500.988 118.546 499.695 120.729 497.923 122.488L468.192 152.186Z" fill="#E4E4E4"/>
<path d="M249.966 98.1511C249.902 98.6943 249.88 99.2417 249.902 99.7882L210.22 128.626L199.318 123.806L189.886 139.29L208.356 149.695C209.848 150.536 211.573 150.87 213.271 150.648C214.97 150.426 216.55 149.66 217.776 148.464L257.715 109.497C259.759 110.016 261.913 109.901 263.89 109.167C265.867 108.433 267.574 107.116 268.783 105.389C269.992 103.663 270.647 101.61 270.659 99.503C270.672 97.396 270.042 95.3353 268.853 93.5947C267.665 91.8542 265.974 90.5163 264.005 89.7592C262.037 89.002 259.884 88.8614 257.834 89.356C255.784 89.8506 253.933 90.9571 252.527 92.5282C251.122 94.0993 250.229 96.0606 249.966 98.1511Z" fill="#FFB6B6"/>
<path d="M208.936 129.68L197.364 148.942C197.035 149.49 196.591 149.961 196.064 150.322C195.536 150.683 194.936 150.927 194.306 151.036C193.675 151.145 193.029 151.117 192.41 150.954C191.791 150.79 191.215 150.496 190.721 150.09L173.394 135.876C170.597 134.177 168.589 131.44 167.809 128.264C167.029 125.089 167.542 121.734 169.235 118.935C170.927 116.136 173.662 114.122 176.839 113.334C180.016 112.546 183.376 113.048 186.183 114.73L206.826 123.283C207.417 123.528 207.948 123.898 208.383 124.366C208.818 124.835 209.147 125.392 209.347 125.999C209.548 126.606 209.615 127.249 209.544 127.884C209.473 128.519 209.266 129.132 208.936 129.68Z" fill="#FF5E5E"/>
<path d="M159.354 297.102H182.037V259.554H159.354V297.102Z" fill="#CACACA"/>
<path d="M180.9 279.422L177.989 283.708L232.429 320.608L235.34 316.322L180.9 279.422Z" fill="#CACACA"/>
<path d="M160.49 279.422L106.051 316.322L108.962 320.608L163.402 283.708L160.49 279.422Z" fill="#CACACA"/>
<path d="M233.884 325.586C237.822 325.586 241.013 322.398 241.013 318.465C241.013 314.532 237.822 311.344 233.884 311.344C229.947 311.344 226.755 314.532 226.755 318.465C226.755 322.398 229.947 325.586 233.884 325.586Z" fill="#CACACA"/>
<path d="M170.371 325.586C174.308 325.586 177.5 322.398 177.5 318.465C177.5 314.532 174.308 311.344 170.371 311.344C166.434 311.344 163.242 314.532 163.242 318.465C163.242 322.398 166.434 325.586 170.371 325.586Z" fill="#CACACA"/>
<path d="M107.506 325.586C111.444 325.586 114.635 322.398 114.635 318.465C114.635 314.532 111.444 311.344 107.506 311.344C103.569 311.344 100.377 314.532 100.377 318.465C100.377 322.398 103.569 325.586 107.506 325.586Z" fill="#CACACA"/>
<path d="M172.964 281.565H167.779V318.465H172.964V281.565Z" fill="#CACACA"/>
<path d="M165.835 276.386H175.556V226.538H165.835V276.386Z" fill="#CACACA"/>
<path d="M142.827 234.306V222.653C142.83 220.508 143.684 218.451 145.203 216.934C146.722 215.417 148.781 214.564 150.929 214.561H194.351C196.499 214.564 198.558 215.417 200.076 216.934C201.595 218.451 202.449 220.508 202.452 222.653V234.306C202.449 236.452 201.595 238.508 200.076 240.026C198.558 241.543 196.499 242.396 194.351 242.398H150.929C148.781 242.396 146.722 241.543 145.203 240.026C143.684 238.508 142.83 236.452 142.827 234.306Z" fill="#3F3D56"/>
<path d="M221.253 313.959L233.261 313.958L238.975 282.846L221.252 282.847L221.253 313.959Z" fill="#FFB8B8"/>
<path d="M218.191 325.586L256.912 325.585V325.095C256.912 323.119 256.522 321.161 255.765 319.334C255.007 317.508 253.897 315.848 252.498 314.45C251.098 313.052 249.437 311.943 247.608 311.187C245.78 310.43 243.82 310.041 241.841 310.041H241.839L218.19 310.042L218.191 325.586Z" fill="#2F2E41"/>
<path d="M239.214 294.666L263.155 241.039C265.154 236.519 265.375 231.413 263.774 226.738C262.173 222.063 258.868 218.161 254.517 215.811L202.589 187.996L178.893 185.982L157.035 183.998L156.877 184.264C156.676 184.605 151.976 192.713 155.153 201.604C157.563 208.348 163.83 213.616 173.782 217.261C197.011 225.769 223.845 233.041 234.304 235.771C234.766 235.89 235.198 236.104 235.571 236.401C235.945 236.698 236.251 237.07 236.47 237.493C236.689 237.912 236.82 238.371 236.853 238.843C236.886 239.314 236.821 239.787 236.662 240.232L214.42 290.147C214.188 290.78 214.104 291.458 214.176 292.128C214.247 292.799 214.472 293.444 214.833 294.014C215.193 294.584 215.68 295.064 216.255 295.416C216.831 295.768 217.48 295.984 218.152 296.046L234.771 297.255C234.912 297.268 235.053 297.275 235.192 297.275C236.044 297.275 236.876 297.028 237.59 296.565C238.304 296.102 238.868 295.442 239.214 294.666Z" fill="#2F2E41"/>
<path d="M213.417 313.959L225.425 313.958L231.139 282.846L213.416 282.847L213.417 313.959Z" fill="#FFB8B8"/>
<path d="M210.354 325.586L249.076 325.585V325.095C249.076 323.119 248.686 321.161 247.929 319.334C247.171 317.508 246.061 315.848 244.662 314.45C243.262 313.052 241.601 311.943 239.772 311.187C237.944 310.43 235.984 310.041 234.005 310.041H234.003L210.354 310.042L210.354 325.586Z" fill="#2F2E41"/>
<path d="M230.399 297.601L254.339 243.974C256.338 239.455 256.559 234.349 254.958 229.673C253.358 224.998 250.052 221.097 245.701 218.746L193.773 190.931L170.077 188.918L152.957 187.434L152.959 187.2C152.758 187.54 148.058 195.648 151.235 204.539C153.644 211.283 155.015 216.551 164.967 220.197C188.196 228.704 215.03 235.976 225.488 238.707C225.95 238.825 226.382 239.039 226.756 239.336C227.129 239.633 227.435 240.005 227.654 240.429C227.874 240.847 228.004 241.307 228.037 241.778C228.07 242.249 228.005 242.722 227.846 243.167L205.605 293.082C205.372 293.715 205.289 294.393 205.36 295.064C205.432 295.734 205.656 296.379 206.017 296.949C206.377 297.519 206.864 297.999 207.44 298.351C208.015 298.704 208.664 298.919 209.336 298.982L225.955 300.19C226.096 300.204 226.237 300.21 226.377 300.21C227.228 300.21 228.061 299.964 228.774 299.5C229.488 299.037 230.052 298.378 230.399 297.601Z" fill="#2F2E41"/>
<path d="M215.381 66.6182C218.455 53.706 210.469 40.7493 197.542 37.6786C184.616 34.6079 171.644 42.586 168.57 55.4982C165.496 68.4104 173.483 81.3671 186.41 84.4378C199.336 87.5086 212.307 79.5305 215.381 66.6182Z" fill="#FFB8B8"/>
<path d="M274.905 153.389C284.965 140.022 292.918 125.196 298.487 109.426C298.81 108.483 298.787 107.456 298.423 106.527C298.058 105.599 297.376 104.831 296.497 104.358L262.071 85.9325C261.514 85.6321 260.896 85.4627 260.264 85.437C259.631 85.4114 259.001 85.5302 258.422 85.7845C257.832 86.0407 257.308 86.428 256.89 86.917C256.472 87.406 256.172 87.9838 256.011 88.6063C252.004 103.803 244.472 117.844 234.025 129.594C233.595 130.072 233.28 130.642 233.103 131.261C232.927 131.879 232.894 132.529 233.008 133.162C233.117 133.785 233.367 134.375 233.738 134.886C234.11 135.398 234.594 135.818 235.152 136.115L269.578 154.541C270.459 155.01 271.478 155.152 272.453 154.941C273.428 154.73 274.297 154.18 274.905 153.389Z" fill="#CCCCCC"/>
<path d="M272.556 151.626C272.37 151.857 272.11 152.016 271.82 152.076C271.53 152.136 271.228 152.092 270.967 151.954L236.541 133.528C236.373 133.441 236.229 133.316 236.118 133.164C236.007 133.011 235.933 132.836 235.901 132.65C235.865 132.454 235.875 132.252 235.931 132.061C235.986 131.869 236.085 131.693 236.22 131.546C246.975 119.45 254.729 104.995 258.854 89.3508C258.901 89.1575 258.993 88.9779 259.122 88.8259C259.251 88.674 259.413 88.5539 259.596 88.4751C259.769 88.3981 259.957 88.362 260.145 88.3698C260.334 88.3776 260.518 88.429 260.684 88.52L295.109 106.946C295.37 107.086 295.573 107.314 295.684 107.588C295.795 107.863 295.806 108.168 295.716 108.45C290.246 123.938 282.436 138.498 272.556 151.626Z" fill="white"/>
<path d="M260.511 106.026L284.256 119.928C286.618 121.311 288.758 117.647 286.399 116.266L262.655 102.364C260.292 100.98 258.153 104.645 260.511 106.026Z" fill="#CCCCCC"/>
<path d="M256.265 113.802L280.01 127.704C282.372 129.087 284.512 125.423 282.153 124.042L258.408 110.14C256.046 108.756 253.906 112.421 256.265 113.802Z" fill="#CCCCCC"/>
<path d="M252.929 121.548L274.524 134.353C276.672 135.627 278.97 132.993 276.825 131.721L255.23 118.916C253.082 117.642 250.784 120.276 252.929 121.548Z" fill="#CCCCCC"/>
<path d="M246.358 129.354L270.102 143.256C272.465 144.639 274.604 140.975 272.245 139.594L248.501 125.692C246.138 124.308 243.999 127.973 246.358 129.354Z" fill="#CCCCCC"/>
<path d="M205.848 189.942L158.238 189.658L158.225 189.32C157.318 165.459 160.237 143.844 167.151 123.242C167.248 122.47 167.354 121.646 167.458 120.837C168.638 111.62 169.576 104.301 178.351 101.576C177.62 100.605 177.189 99.4416 177.111 98.2292C177.056 97.4234 177.161 96.6147 177.422 95.8501C177.683 95.0855 178.093 94.3804 178.629 93.7758C179.142 93.1918 179.766 92.7157 180.465 92.3751C181.164 92.0344 181.924 91.8361 182.7 91.7917L199.646 91.2153C200.537 91.2093 201.403 91.5028 202.106 92.0485C203.397 93.0059 204.303 94.3907 204.664 95.9551C205.025 97.5195 204.817 99.1611 204.076 100.586C203.877 100.983 203.8 101.164 203.771 101.242C204.374 104.395 206.161 108.14 208.053 112.104C210.761 117.778 213.831 124.209 214.62 131.09C215.046 134.805 214.869 138.565 214.095 142.223C213.742 144.195 213.661 146.205 213.854 148.199C214.009 151.155 214.155 153.946 212.482 156.645C212.056 157.377 211.568 158.157 210.995 159.021L208.642 164.64L205.848 189.942Z" fill="#FF5E5E"/>
<path d="M134.402 223.334V126.161C134.406 122.995 135.667 119.959 137.908 117.72C140.15 115.481 143.189 114.222 146.359 114.218H149.666C152.835 114.222 155.875 115.481 158.116 117.72C160.358 119.959 161.618 122.995 161.622 126.161V223.334C161.618 226.501 160.358 229.536 158.116 231.775C155.875 234.014 152.835 235.274 149.666 235.277H146.359C143.189 235.274 140.15 234.014 137.908 231.775C135.667 229.536 134.406 226.501 134.402 223.334Z" fill="#3F3D56"/>
<path d="M262.072 135.86C261.731 136.287 261.423 136.741 261.153 137.216L212.21 140.786L205.498 130.945L189.305 139.123L199.493 157.698C200.316 159.199 201.605 160.392 203.165 161.1C204.724 161.807 206.472 161.989 208.144 161.62L262.658 149.582C264.12 151.101 266.01 152.139 268.077 152.558C270.144 152.977 272.29 152.758 274.229 151.929C276.169 151.1 277.809 149.702 278.933 147.919C280.057 146.136 280.611 144.053 280.522 141.948C280.432 139.843 279.703 137.815 278.431 136.135C277.159 134.454 275.405 133.199 273.402 132.538C271.4 131.877 269.243 131.841 267.219 132.434C265.195 133.028 263.4 134.223 262.072 135.86Z" fill="#FFB6B6"/>
<path d="M210.564 141.005L190.556 151.263C189.987 151.555 189.361 151.721 188.722 151.749C188.083 151.778 187.445 151.669 186.852 151.429C186.259 151.189 185.724 150.824 185.285 150.359C184.846 149.895 184.512 149.341 184.306 148.736L177.102 127.527C175.624 124.616 175.361 121.238 176.37 118.134C177.379 115.029 179.578 112.45 182.486 110.96C173.617 115.508 192.088 102.591 199.138 116.31L212.151 134.459C212.523 134.979 212.779 135.573 212.901 136.2C213.023 136.827 213.008 137.474 212.858 138.095C212.707 138.716 212.424 139.298 212.028 139.8C211.632 140.302 211.133 140.713 210.564 141.005Z" fill="#FF5E5E"/>
<path d="M181.108 84.432C179.66 84.432 178.062 83.7347 176.26 82.3223C170.96 78.1646 167.171 72.3847 165.475 65.8691C163.779 59.3535 164.27 52.4621 166.873 46.252C168.182 43.1269 170.632 38.8792 174.864 36.3898C177.906 34.6011 181.48 33.955 184.591 33.4897C187.284 33.0865 190.012 32.7655 192.696 32.537C195.905 32.263 199.611 32.0779 202.991 33.3606C205.467 34.3008 207.575 35.9611 209.613 37.5668C210.324 38.126 211.058 38.7052 211.794 39.2409C213.577 40.6303 215.634 41.6279 217.829 42.1686C218.293 42.2646 218.73 42.4587 219.112 42.738C219.493 43.0173 219.811 43.3752 220.042 43.7875C220.278 44.2065 220.421 44.6713 220.462 45.1504C220.503 45.6296 220.44 46.1118 220.278 46.5647C219.96 47.4552 219.673 48.2581 220.254 49.1279C220.469 49.4344 220.756 49.6834 221.09 49.8534C221.424 50.0233 221.794 50.1089 222.169 50.1027C222.366 50.0995 222.562 50.1457 222.737 50.237C222.912 50.3284 223.062 50.4621 223.173 50.626C223.285 50.7884 223.355 50.9757 223.378 51.1716C223.401 51.3675 223.375 51.566 223.304 51.7498L223.211 51.9894C223.46 52.0126 223.699 52.0959 223.909 52.2322C224.119 52.3684 224.292 52.5535 224.414 52.7715C224.596 53.082 224.666 53.4451 224.613 53.8008C224.56 54.1566 224.388 54.4836 224.124 54.728C221.977 56.7693 219.3 58.1686 216.397 58.7672C214.411 59.1564 212.367 59.1517 210.382 58.7534L210.063 58.6912L210.102 58.3378C202.074 55.4777 194.828 60.3315 190.696 65.8804L190.1 65.5042C190.202 65.2974 190.262 65.072 190.275 64.8416C190.288 64.6112 190.254 64.3806 190.175 64.1636C190.092 63.9031 189.959 63.6616 189.782 63.4529C189.605 63.2442 189.389 63.0723 189.146 62.9472C188.654 62.7444 188.112 62.6918 187.59 62.7958C187.069 62.8999 186.589 63.156 186.213 63.5319C185.829 63.9332 185.534 64.4099 185.345 64.9315C185.156 65.4532 185.078 66.0084 185.116 66.5618C185.225 67.7347 185.524 68.8822 186.002 69.959C186.196 70.474 186.397 71.0069 186.56 71.544C187.475 74.5951 187.231 77.8758 185.875 80.7586C185.25 82.0737 184.119 83.7506 182.283 84.2704C181.901 84.3783 181.505 84.4327 181.108 84.432Z" fill="#2F2E41"/>
<path d="M572.157 327H0.842641C0.619583 326.999 0.405886 326.91 0.248388 326.753C0.0908903 326.595 0.00244141 326.381 0.00244141 326.158C0.00244141 325.935 0.0908903 325.722 0.248388 325.564C0.405886 325.406 0.619583 325.317 0.842641 325.317H572.157C572.381 325.317 572.595 325.405 572.753 325.563C572.911 325.721 573 325.935 573 326.158C573 326.382 572.911 326.596 572.753 326.753C572.595 326.911 572.381 327 572.157 327Z" fill="#CACACA"/>
</g>
<defs>
<clipPath id="clip0_100_41">
<rect width="573" height="327" fill="white"/>
</clipPath>
</defs>
</svg>
