<svg width="17" height="14" viewBox="0 0 17 14" fill="none" xmlns="http://www.w3.org/2000/svg">
<path opacity="0.1" fill-rule="evenodd" clip-rule="evenodd" d="M14.3134 13.9899L14.2488 13.8469C13.883 12.9201 13.2727 12.3119 12.3239 11.9445C11.3917 11.5837 10.1419 11.4591 8.50009 11.4591C6.87083 11.4591 5.62806 11.5914 4.69806 11.9562C3.75297 12.327 3.14083 12.9339 2.77009 13.8447L2.69782 14C1.03772 12.5237 0 10.4216 0 8.0888C0 3.62148 3.80558 0 8.5 0C13.1945 0 17 3.62148 17 8.0888C17 10.4163 15.967 12.5142 14.3134 13.9899ZM5.43056 6.29129C5.43056 4.67808 6.80482 3.37033 8.5 3.37033C10.1952 3.37033 11.5694 4.67808 11.5694 6.29129C11.5694 7.90446 10.1952 9.21224 8.5 9.21224C6.80482 9.21224 5.43056 7.90446 5.43056 6.29129Z" fill="#323232"/>
</svg>
