<svg width="43" height="43" viewBox="0 0 43 43" fill="none" xmlns="http://www.w3.org/2000/svg">
<path d="M22.382 43L16.1798 39.4391L10.4521 42.7271H9.97754C9.25107 42.7271 8.54141 42.5843 7.87373 42.3029C7.23125 42.03 6.65176 41.6437 6.16045 41.1439C5.66914 40.6526 5.27861 40.0731 5.00566 39.4307C4.72432 38.763 4.58154 38.0575 4.58154 37.3269V5.396C4.58154 4.66533 4.72432 3.95986 5.00566 3.29219C5.27861 2.64971 5.66914 2.07021 6.16465 1.57891C6.65596 1.0834 7.23545 0.69707 7.87793 0.424121C8.53721 0.142773 9.24687 0 9.97334 0H34.7865C35.513 0 36.2227 0.142773 36.8903 0.424121C37.5328 0.69707 38.1123 1.0834 38.6036 1.58311C39.0949 2.07441 39.4855 2.65391 39.7584 3.29639C40.0397 3.96406 40.1825 4.66953 40.1825 5.4002V37.3311C40.1825 38.0617 40.0397 38.7672 39.7584 39.4349C39.4855 40.0773 39.0949 40.6568 38.5994 41.1481C38.1081 41.6437 37.5286 42.03 36.8861 42.3029C36.2227 42.5843 35.513 42.7271 34.7865 42.7271H34.312L28.5843 39.4391L22.382 43ZM28.5843 35.3322L35.1855 39.1241C35.2904 39.0989 35.3954 39.0653 35.5004 39.0233C35.7188 38.931 35.9161 38.7966 36.0841 38.6286C36.2563 38.4564 36.3864 38.2633 36.4788 38.0407C36.5754 37.8182 36.6216 37.5746 36.6216 37.3269V5.396C36.6216 5.14824 36.5754 4.90469 36.4788 4.68213C36.3864 4.46377 36.2521 4.26641 36.0841 4.09844C35.9119 3.92627 35.7188 3.79609 35.5004 3.70371C35.2736 3.60713 35.0343 3.56094 34.7865 3.56094H9.97334C9.72559 3.56094 9.48623 3.60713 9.25947 3.70371C9.04111 3.79609 8.84375 3.93047 8.67578 4.09844C8.50361 4.27061 8.37344 4.46377 8.28105 4.68633C8.18447 4.90889 8.13828 5.15244 8.13828 5.4002V37.3311C8.13828 37.5788 8.18447 37.8224 8.28105 38.0449C8.37344 38.2633 8.50781 38.4606 8.67578 38.6286C8.84795 38.8008 9.04111 38.931 9.25947 39.0233C9.36025 39.0653 9.46523 39.0989 9.57441 39.1241L16.1756 35.3322L22.382 38.8932L28.5843 35.3322Z" fill="black"/>
<path d="M20.6016 13.0554H13.4797C12.4971 13.0554 11.6992 12.2575 11.6992 11.2749C11.6992 10.2923 12.4971 9.49445 13.4797 9.49445H20.6016C21.5842 9.49445 22.382 10.2923 22.382 11.2749C22.382 12.2575 21.5842 13.0554 20.6016 13.0554ZM29.4997 20.4754H13.4797C12.4971 20.4754 11.6992 19.6776 11.6992 18.6949C11.6992 17.7123 12.4971 16.9145 13.4797 16.9145H29.5039C30.4865 16.9145 31.2844 17.7123 31.2844 18.6949C31.2802 19.6776 30.4865 20.4754 29.4997 20.4754Z" fill="#E31E24"/>
</svg>
