<svg width="28" height="28" viewBox="0 0 28 28" fill="none" xmlns="http://www.w3.org/2000/svg">
<g clip-path="url(#clip0_932_436)">
<path d="M27.4182 0.0234375H0.582303C0.312383 0.0234375 0.09375 0.242149 0.09375 0.511991V24.7451C0.09375 25.0149 0.312399 25.2336 0.582303 25.2336H3.97018V27.4878C3.97018 27.7575 4.18897 27.9763 4.45873 27.9763H8.27997C8.54989 27.9763 8.76852 27.7575 8.76852 27.4878V25.2336H19.2319V27.4878C19.2319 27.7575 19.4506 27.9763 19.7205 27.9763H23.5417C23.8115 27.9763 24.0303 27.7575 24.0303 27.4878V25.2336H27.4181C27.6879 25.2336 27.9067 25.0149 27.9067 24.7451V0.511975C27.9067 0.242149 27.6879 0.0234375 27.4182 0.0234375ZM7.79142 26.9992H4.9473V25.2892H7.7914V26.9992H7.79142ZM23.0532 26.9992H20.2091V25.2892H23.0532V26.9992ZM3.34707 3.10473H24.6534V22.2498H3.34707V3.10473ZM2.36995 15.9856H1.07086V9.28529H2.36995V15.9856ZM26.9296 24.2565H1.07086V16.9626H2.36995V22.7383C2.36995 23.0081 2.58861 23.2269 2.85852 23.2269H25.1419C25.4117 23.2269 25.6305 23.0081 25.6305 22.7383V2.61618C25.6305 2.34633 25.4117 2.12762 25.1419 2.12762H2.85852C2.58861 2.12762 2.36995 2.34633 2.36995 2.61618V8.30819H1.07086V1.00054H26.9296V24.2565Z" fill="#333333"/>
<path d="M18.7018 8.00827C18.6899 7.99327 18.6774 7.97862 18.6635 7.96477C18.6497 7.95093 18.635 7.93839 18.62 7.92657C17.4292 6.75618 15.7975 6.03296 13.9999 6.03296C12.2023 6.03296 10.5707 6.75604 9.37987 7.92626C9.36473 7.93819 9.34994 7.9508 9.33603 7.96472C9.32206 7.97869 9.30946 7.99346 9.29753 8.00859C8.12732 9.19946 7.4043 10.831 7.4043 12.6285C7.4043 14.4257 8.12718 16.0572 9.29719 17.248C9.30918 17.2632 9.32186 17.2782 9.33597 17.2922C9.35008 17.3063 9.36493 17.3189 9.38021 17.3309C10.571 18.501 12.2024 19.224 13.9999 19.224C15.7974 19.224 17.429 18.5008 18.6199 17.3305C18.6349 17.3187 18.6496 17.3061 18.6635 17.2922C18.6774 17.2783 18.69 17.2636 18.7019 17.2485C19.8722 16.0577 20.5954 14.426 20.5954 12.6285C20.5954 10.8308 19.8721 9.19912 18.7018 8.00827ZM18.6083 13.117H19.5957C19.4933 14.2996 19.0236 15.3785 18.3007 16.2384L17.6039 15.5417C17.4131 15.3509 17.1038 15.3509 16.913 15.5417C16.7222 15.7325 16.7222 16.0418 16.913 16.2326L17.6097 16.9293C16.7498 17.6522 15.671 18.1218 14.4884 18.2243V17.2369C14.4884 16.9671 14.2696 16.7484 13.9999 16.7484C13.7299 16.7484 13.5113 16.9671 13.5113 17.2369V18.2243C12.3286 18.1218 11.2498 17.6522 10.3899 16.9293L11.0866 16.2326C11.2773 16.0418 11.2773 15.7325 11.0866 15.5417C10.8958 15.351 10.5865 15.3509 10.3956 15.5417L9.69899 16.2383C8.97603 15.3785 8.50641 14.2996 8.40391 13.117H9.39138C9.66114 13.117 9.87995 12.8983 9.87995 12.6285C9.87995 12.3586 9.66116 12.1399 9.39138 12.1399H8.40391C8.50641 10.9573 8.97603 9.87852 9.69899 9.01861L10.3956 9.71533C10.491 9.81072 10.6161 9.85843 10.7411 9.85843C10.8661 9.85843 10.9912 9.81072 11.0865 9.71533C11.2773 9.52456 11.2773 9.21522 11.0865 9.0244L10.3899 8.32768C11.2498 7.60472 12.3286 7.13509 13.5113 7.03264V8.02004C13.5113 8.28988 13.7299 8.50861 13.9999 8.50861C14.2696 8.50861 14.4884 8.28988 14.4884 8.02004V7.03264C15.671 7.13507 16.7498 7.60472 17.6097 8.32768L16.913 9.0244C16.7222 9.2152 16.7222 9.52454 16.913 9.71533C17.0083 9.81072 17.1334 9.85843 17.2585 9.85843C17.3835 9.85843 17.5085 9.81072 17.6039 9.71533L18.3006 9.01861C19.0236 9.87852 19.4933 10.9573 19.5957 12.1399H18.6083C18.3384 12.1399 18.1197 12.3586 18.1197 12.6285C18.1197 12.8983 18.3384 13.117 18.6083 13.117Z" fill="#333333"/>
<path d="M14.0004 10.1858C12.6535 10.1858 11.5576 11.2816 11.5576 12.6285C11.5576 13.9755 12.6535 15.0713 14.0004 15.0713C15.3474 15.0713 16.4432 13.9755 16.4432 12.6285C16.4432 11.2816 15.3474 10.1858 14.0004 10.1858ZM14.0004 14.0942C13.1922 14.0942 12.5347 13.4367 12.5347 12.6285C12.5347 11.8204 13.1922 11.1629 14.0004 11.1629C14.8086 11.1629 15.4661 11.8204 15.4661 12.6285C15.4661 13.4367 14.8086 14.0942 14.0004 14.0942Z" fill="#333333"/>
</g>
<defs>
<clipPath id="clip0_932_436">
<rect width="28" height="28" fill="white"/>
</clipPath>
</defs>
</svg>
